# xmcd
#
# Track frame offsets:
#   150
#   11857
#   24835
#   33409
#   40510
#   54466
#   63237
#   74020
#   82223
#   96276
#   107278
#   116167
#   126174
#   140827
#   159180
#   173296
#
# Disc length: 2439 seconds
#
# Revision: 0
# Processed by: cddbd v1.5.2PL0 Copyright (c) Steve Scherf et al.
# Submitted via: GXTranscoder 2.0.1939
#
DISCID=cf098510
DTITLE=Insane Society - Upside Down
DYEAR=1900
DGENRE=Children's Music
TTITLE0=Fat Chick
TTITLE1=Send the Troops
TTITLE2=Bastard
TTITLE3=Upside Down
TTITLE4=Paranoia
TTITLE5=Bin Laden
TTITLE6=Made in China
TTITLE7=Armchair arry
TTITLE8=Seventeen
TTITLE9=Johnny Holmes
TTITLE10=Evicted
TTITLE11=Speeding
TTITLE12=Termination Day
TTITLE13=Fifteen Minute War
TTITLE14=Seaford Town
TTITLE15=Hidden Track
EXTD=
EXTT0=
EXTT1=
EXTT2=
EXTT3=
EXTT4=
EXTT5=
EXTT6=
EXTT7=
EXTT8=
EXTT9=
EXTT10=
EXTT11=
EXTT12=
EXTT13=
EXTT14=
EXTT15=
PLAYORDER=
